# xmcd
#
# Track frame offsets: 
#        183
#        24048
#        42400
#        52308
#        61825
#        76833
#        91385
#        103918
#        114193
#        123985
#        139243
#        155295
#        168638
#        179205
#        189270
#        200593
#        219695
#        227860
#        241353
#        251655
#
# Disc length: 3522 seconds
#
# Revision: 1
# Processed by: cddbd v1.5.2PL0 Copyright (c) Steve Scherf et al.
# Submitted via: ExactAudioCopy v0.99pb5
#
DISCID=1d0dc014
DTITLE=Maria Bethania - Ao Vivo Na Boate Barroco
DYEAR=1968
DGENRE=Other
TTITLE0=Carinhoso - Se Todos Fossem Iguais A Voce
TTITLE1=Marina
TTITLE2=Molambo
TTITLE3=Lama
TTITLE4=Baby
TTITLE5=O Que Tinha De Ser
TTITLE6=Camisa Listada
TTITLE7=Pano Legal - Cafe Socaite
TTITLE8=Voltei Pro Morro
TTITLE9=Ela Falava Nisso Todo Dia
TTITLE10=Os Argonautas
TTITLE11=Nada Alem
TTITLE12=Fosforo Queimado
TTITLE13=Maria
TTITLE14=Ponto De Oxossi
TTITLE15=Samba de Roda - Marinheiro So
TTITLE16=Irene
TTITLE17=Ponto de Iansa
TTITLE18=Meiga Presenca
TTITLE19=Ultimo Desejo
EXTD=
EXTT0=
EXTT1=
EXTT2=
EXTT3=
EXTT4=
EXTT5=
EXTT6=
EXTT7=
EXTT8=
EXTT9=
EXTT10=
EXTT11=
EXTT12=
EXTT13=
EXTT14=
EXTT15=
EXTT16=
EXTT17=
EXTT18=
EXTT19=
PLAYORDER=
